<?xml version="1.0" encoding="utf-8"?>
<!-- Generator: Adobe Illustrator 19.0.0, SVG Export Plug-In . SVG Version: 6.00 Build 0)  -->
<svg version="1.1" id="Livello_1" xmlns="http://www.w3.org/2000/svg" xmlns:xlink="http://www.w3.org/1999/xlink" x="0px" y="0px"
	 viewBox="0 0 2423.3 1535.8" style="enable-background:new 0 0 2423.3 1535.8;" xml:space="preserve">
<style type="text/css">
	.st0{fill:#00003F;}
	.st1{clip-path:url(#XMLID_128_);fill:url(#XMLID_129_);}
	.st2{clip-path:url(#XMLID_128_);fill:none;stroke:url(#XMLID_130_);stroke-width:24;stroke-miterlimit:10;}
	.st3{fill:none;}
	.st4{opacity:0.7;}
	.st5{fill:#FFFFFF;}
</style>
<rect id="XMLID_127_" y="1" class="st0" width="2423.3" height="1535.8"/>
<g id="XMLID_123_">
	<defs>
		<rect id="XMLID_124_" y="1" width="2423.3" height="1535.8"/>
	</defs>
	<clipPath id="XMLID_128_">
		<use xlink:href="#XMLID_124_"  style="overflow:visible;"/>
	</clipPath>
	
		<radialGradient id="XMLID_129_" cx="1971.8644" cy="1370.4554" r="1437.1483" fx="1812.4327" fy="1343.1787" gradientUnits="userSpaceOnUse">
		<stop  offset="0.2258" style="stop-color:#000B28"/>
		<stop  offset="0.3314" style="stop-color:#000A2D"/>
		<stop  offset="0.453" style="stop-color:#00063B"/>
		<stop  offset="0.5789" style="stop-color:#000051"/>
		<stop  offset="0.837" style="stop-color:#000835"/>
		<stop  offset="1" style="stop-color:#000B28"/>
	</radialGradient>
	<path id="XMLID_126_" class="st1" d="M196.4,703.3c-0.1-3.8-0.1-7.5,0-11.3c1-89.8,22.6-190.3,73.5-266.8
		C494.3,88,878.6,242.1,1129.5,310c465,125.7,479.3,83.2,622,46.9c185.1-47,218.1-136.4,392.2-137.3c166-0.8,338.2,82.8,418.5,232.2
		c74.2,138.1,60,284.9,29.4,432c-22.8,109.5-59,201.5-71.8,312.4c-15,131,38.8,330.3-56.5,427.3c-88.9,90.4-281.9,86.8-407.4,63.6
		c-132.9-24.6-256.7-82.9-389.3-108.6c-231.3-44.7-335.6-60.3-561.9-20.6C910.5,1592,737.7,1780,537.8,1740.2
		c-138-27.5-337-142.3-366.8-281.8c-37.4-175.1,78-260.1,81.4-429.5C254.2,940,198.1,791.2,196.4,703.3z"/>
	<linearGradient id="XMLID_130_" gradientUnits="userSpaceOnUse" x1="145.6143" y1="992.332" x2="2622.4766" y2="992.332">
		<stop  offset="0" style="stop-color:#0A0037"/>
		<stop  offset="0.3356" style="stop-color:#09003B"/>
		<stop  offset="0.6998" style="stop-color:#050048"/>
		<stop  offset="1" style="stop-color:#000059"/>
	</linearGradient>
	<path id="XMLID_125_" class="st2" d="M190.5,715.1c-0.1-3.8-0.1-7.5,0-11.3C191.4,614,213,513.5,264,437
		c224.4-337.2,608.7-183,859.6-115.2c465,125.7,479.3,83.2,622,46.9c185.1-47,218.1-136.4,392.2-137.3
		c166-0.8,338.2,82.8,418.5,232.2c74.2,138.1,60,284.9,29.4,432c-22.8,109.5-59,201.5-71.8,312.4c-15,131,38.8,330.3-56.5,427.3
		c-88.9,90.4-281.9,86.8-407.4,63.6c-132.9-24.6-256.7-82.9-389.3-108.6c-231.3-44.7-335.6-60.3-561.9-20.6
		c-194.2,34.1-366.9,222.2-566.8,182.4c-138-27.5-337-142.3-366.8-281.8c-37.4-175.1,78-260.1,81.4-429.5
		C248.2,951.8,192.1,803,190.5,715.1z"/>
</g>
<rect id="XMLID_122_" y="1" class="st3" width="2423.3" height="1535.8"/>
<g id="XMLID_28_" class="st4">
	<path id="XMLID_121_" class="st5" d="M571.9,328.5h-6c-3.9,0-3.9,6,0,6h6C575.8,334.5,575.8,328.5,571.9,328.5z"/>
	<path id="XMLID_120_" class="st5" d="M769.9,406.5c-3.9,0-3.9,6,0,6C773.8,412.5,773.8,406.5,769.9,406.5z"/>
	<path id="XMLID_119_" class="st5" d="M307.9,424.5h-3c-1.6,0-3.1,1.4-3,3c0.1,1.6,1.3,3,3,3h3c1.6,0,3.1-1.4,3-3
		C310.8,425.9,309.6,424.5,307.9,424.5z"/>
	<path id="XMLID_118_" class="st5" d="M790.2,653.2l-6-6c-2.7-2.7-7,1.5-4.2,4.2c2,2,4,4,6,6C788.7,660.2,793,656,790.2,653.2z"/>
	<path id="XMLID_117_" class="st5" d="M1339.1,1046.4c-1-1-2-2-3-3c-1.1-1.1-3.1-1.2-4.2,0c-1.1,1.2-1.2,3.1,0,4.2c1,1,2,2,3,3
		c1.1,1.1,3.1,1.2,4.2,0C1340.2,1049.5,1340.3,1047.6,1339.1,1046.4z"/>
	<path id="XMLID_116_" class="st5" d="M1322,715.5c-3.9,0-3.9,6,0,6C1325.9,721.5,1325.9,715.5,1322,715.5z"/>
	<path id="XMLID_115_" class="st5" d="M1805.1,901.5c-3.9,0-3.9,6,0,6C1808.9,907.5,1808.9,901.5,1805.1,901.5z"/>
	<path id="XMLID_114_" class="st5" d="M1577,1414.6c-3.9,0-3.9,6,0,6C1580.9,1420.6,1580.9,1414.6,1577,1414.6z"/>
	<path id="XMLID_113_" class="st5" d="M1922.1,1642.6c-3.9,0-3.9,6,0,6C1925.9,1648.6,1925.9,1642.6,1922.1,1642.6z"/>
	<path id="XMLID_112_" class="st5" d="M2177.1,1633.6c-1.6,0.1-3,1.3-3,3v3c0,1.6,1.4,3.1,3,3c1.6-0.1,3-1.3,3-3v-3
		C2180.1,1635,2178.7,1633.5,2177.1,1633.6z"/>
	<path id="XMLID_111_" class="st5" d="M2303.1,1330.6c-3.9,0-3.9,6,0,6C2307,1336.6,2307,1330.6,2303.1,1330.6z"/>
	<path id="XMLID_110_" class="st5" d="M2186.1,964.5h-3c-1.6,0-3.1,1.4-3,3c0.1,1.6,1.3,3,3,3h3c1.6,0,3.1-1.4,3-3
		C2189,965.9,2187.8,964.5,2186.1,964.5z"/>
	<path id="XMLID_109_" class="st5" d="M1979.1,610.5c-3.9,0-3.9,6,0,6C1982.9,616.5,1982.9,610.5,1979.1,610.5z"/>
	<path id="XMLID_108_" class="st5" d="M1205,1342.6c-3.9,0-3.9,6,0,6C1208.9,1348.6,1208.9,1342.6,1205,1342.6z"/>
	<path id="XMLID_107_" class="st5" d="M391.9,600.5c-1.3,0-1.3,2,0,2C393.2,602.5,393.2,600.5,391.9,600.5z"/>
	<path id="XMLID_106_" class="st5" d="M556.9,561.5c-1.3,0-1.3,2,0,2C558.2,563.5,558.2,561.5,556.9,561.5z"/>
	<path id="XMLID_105_" class="st5" d="M469.9,405.5c-1.3,0-1.3,2,0,2C471.2,407.5,471.2,405.5,469.9,405.5z"/>
	<path id="XMLID_104_" class="st5" d="M977,444.5c-1.3,0-1.3,2,0,2C978.3,446.5,978.3,444.5,977,444.5z"/>
	<path id="XMLID_103_" class="st5" d="M1091,696.5c-1.3,0-1.3,2,0,2C1092.3,698.5,1092.3,696.5,1091,696.5z"/>
	<path id="XMLID_102_" class="st5" d="M989,819.5c-1.3,0-1.3,2,0,2C990.3,821.5,990.3,819.5,989,819.5z"/>
	<path id="XMLID_101_" class="st5" d="M718.9,999.5c-1.3,0-1.3,2,0,2C720.2,1001.5,720.2,999.5,718.9,999.5z"/>
	<path id="XMLID_100_" class="st5" d="M613.9,789.5c-1.3,0-1.3,2,0,2C615.2,791.5,615.2,789.5,613.9,789.5z"/>
	<path id="XMLID_99_" class="st5" d="M848,753.5c-1.3,0-1.3,2,0,2C849.2,755.5,849.2,753.5,848,753.5z"/>
	<path id="XMLID_98_" class="st5" d="M995,1065.5c-1.3,0-1.3,2,0,2C996.3,1067.5,996.3,1065.5,995,1065.5z"/>
	<path id="XMLID_97_" class="st5" d="M1385,1281.6c-1.3,0-1.3,2,0,2C1386.3,1283.6,1386.3,1281.6,1385,1281.6z"/>
	<path id="XMLID_96_" class="st5" d="M1532,1152.6c-1.3,0-1.3,2,0,2C1533.3,1154.6,1533.3,1152.6,1532,1152.6z"/>
	<path id="XMLID_95_" class="st5" d="M1586,810.5h-3c-1.3,0-1.3,2,0,2h3C1587.3,812.5,1587.3,810.5,1586,810.5z"/>
	<path id="XMLID_94_" class="st5" d="M1508,573.5c-1.3,0-1.3,2,0,2C1509.3,575.5,1509.3,573.5,1508,573.5z"/>
	<path id="XMLID_93_" class="st5" d="M1196,585.5c-1.3,0-1.3,2,0,2C1197.3,587.5,1197.3,585.5,1196,585.5z"/>
	<path id="XMLID_92_" class="st5" d="M1226,831.5c-1.3,0-1.3,2,0,2C1227.3,833.5,1227.3,831.5,1226,831.5z"/>
	<path id="XMLID_91_" class="st5" d="M2036.1,792.5c-1.3,0-1.3,2,0,2C2037.4,794.5,2037.4,792.5,2036.1,792.5z"/>
	<path id="XMLID_90_" class="st5" d="M2102.1,501.5c-1.3,0-1.3,2,0,2C2103.4,503.5,2103.4,501.5,2102.1,501.5z"/>
	<path id="XMLID_89_" class="st5" d="M1748,609.5c-1.3,0-1.3,2,0,2C1749.3,611.5,1749.3,609.5,1748,609.5z"/>
	<path id="XMLID_88_" class="st5" d="M1541,963.5c-1.3,0-1.3,2,0,2C1542.3,965.5,1542.3,963.5,1541,963.5z"/>
	<path id="XMLID_87_" class="st5" d="M1670,1188.6c-1.3,0-1.3,2,0,2C1671.3,1190.6,1671.3,1188.6,1670,1188.6z"/>
	<path id="XMLID_86_" class="st5" d="M1808.1,1425.6c-1.3,0-1.3,2,0,2C1809.3,1427.6,1809.3,1425.6,1808.1,1425.6z"/>
	<path id="XMLID_85_" class="st5" d="M2027.1,1422.6c-1.3,0-1.3,2,0,2C2028.4,1424.6,2028.4,1422.6,2027.1,1422.6z"/>
	<path id="XMLID_84_" class="st5" d="M2144.1,1227.6c-1.3,0-1.3,2,0,2C2145.4,1229.6,2145.4,1227.6,2144.1,1227.6z"/>
	<path id="XMLID_83_" class="st5" d="M1949.1,1083.5c-1.3,0-1.3,2,0,2C1950.4,1085.5,1950.4,1083.5,1949.1,1083.5z"/>
	<path id="XMLID_82_" class="st5" d="M2105.1,819.5c-1.3,0-1.3,2,0,2C2106.4,821.5,2106.4,819.5,2105.1,819.5z"/>
	<path id="XMLID_81_" class="st5" d="M2171.1,591.5c-1.3,0-1.3,2,0,2C2172.4,593.5,2172.4,591.5,2171.1,591.5z"/>
	<path id="XMLID_80_" class="st5" d="M2204.1,393.5c-1.3,0-1.3,2,0,2C2205.4,395.5,2205.4,393.5,2204.1,393.5z"/>
	<path id="XMLID_79_" class="st5" d="M1982.1,432.5c-1.3,0-1.3,2,0,2C1983.4,434.5,1983.4,432.5,1982.1,432.5z"/>
	<path id="XMLID_78_" class="st5" d="M1760,741.5c-1.3,0-1.3,2,0,2C1761.3,743.5,1761.3,741.5,1760,741.5z"/>
	<path id="XMLID_77_" class="st5" d="M1622,1101.5c-1.3,0-1.3,2,0,2C1623.3,1103.5,1623.3,1101.5,1622,1101.5z"/>
	<path id="XMLID_76_" class="st5" d="M1418,1410.6c-1.3,0-1.3,2,0,2C1419.3,1412.6,1419.3,1410.6,1418,1410.6z"/>
	<path id="XMLID_75_" class="st5" d="M1010,1398.6c-1.3,0-1.3,2,0,2C1011.3,1400.6,1011.3,1398.6,1010,1398.6z"/>
	<path id="XMLID_74_" class="st5" d="M998,1236.6c-1.3,0-1.3,2,0,2C999.3,1238.6,999.3,1236.6,998,1236.6z"/>
	<path id="XMLID_73_" class="st5" d="M815,1098.5c-1.3,0-1.3,2,0,2C816.2,1100.5,816.2,1098.5,815,1098.5z"/>
	<path id="XMLID_72_" class="st5" d="M1115,1011.5c-1.3,0-1.3,2,0,2C1116.3,1013.5,1116.3,1011.5,1115,1011.5z"/>
	<path id="XMLID_71_" class="st5" d="M830,1392.6c-1.3,0-1.3,2,0,2C831.2,1394.6,831.2,1392.6,830,1392.6z"/>
	<path id="XMLID_70_" class="st5" d="M667.9,1275.6c-1.3,0-1.3,2,0,2C669.2,1277.6,669.2,1275.6,667.9,1275.6z"/>
	<path id="XMLID_69_" class="st5" d="M589.9,1080.5c-1.3,0-1.3,2,0,2C591.2,1082.5,591.2,1080.5,589.9,1080.5z"/>
	<path id="XMLID_68_" class="st5" d="M442.9,1119.5c-1.3,0-1.3,2,0,2C444.2,1121.5,444.2,1119.5,442.9,1119.5z"/>
	<path id="XMLID_67_" class="st5" d="M444.9,904.5v3c0,1.3,2,1.3,2,0v-3C446.9,903.2,444.9,903.2,444.9,904.5z"/>
	<path id="XMLID_66_" class="st5" d="M457.9,756.5c-1.3,0-1.3,2,0,2C459.2,758.5,459.2,756.5,457.9,756.5z"/>
	<path id="XMLID_65_" class="st5" d="M302.6,744.8l-3-3c-0.9-0.9-2.3,0.5-1.4,1.4c1,1,2,2,3,3C302.1,747.1,303.5,745.7,302.6,744.8z
		"/>
	<path id="XMLID_64_" class="st5" d="M214.9,618.5c-1.3,0-1.3,2,0,2C216.2,620.5,216.2,618.5,214.9,618.5z"/>
	<path id="XMLID_63_" class="st5" d="M1031,501.5h-3c-1.3,0-1.3,2,0,2h3C1032.3,503.5,1032.3,501.5,1031,501.5z"/>
	<path id="XMLID_62_" class="st5" d="M1238,786.5c-1.3,0-1.3,2,0,2C1239.3,788.5,1239.3,786.5,1238,786.5z"/>
	<path id="XMLID_61_" class="st5" d="M1529,1044.5c-1.3,0-1.3,2,0,2C1530.3,1046.5,1530.3,1044.5,1529,1044.5z"/>
	<path id="XMLID_60_" class="st5" d="M1748,1089.5c-1.3,0-1.3,2,0,2C1749.3,1091.5,1749.3,1089.5,1748,1089.5z"/>
	<path id="XMLID_59_" class="st5" d="M1991.1,1332.6c-1.3,0-1.3,2,0,2C1992.4,1334.6,1992.4,1332.6,1991.1,1332.6z"/>
	<path id="XMLID_58_" class="st5" d="M2240.1,1386.6c-1.3,0-1.3,2,0,2C2241.4,1388.6,2241.4,1386.6,2240.1,1386.6z"/>
	<path id="XMLID_57_" class="st5" d="M2273.1,1137.6c-1.3,0-1.3,2,0,2C2274.4,1139.6,2274.4,1137.6,2273.1,1137.6z"/>
	<path id="XMLID_56_" class="st5" d="M2312.1,813.5c-1.3,0-1.3,2,0,2C2313.4,815.5,2313.4,813.5,2312.1,813.5z"/>
	<path id="XMLID_55_" class="st5" d="M2312.1,606.5c-1.3,0-1.3,2,0,2C2313.4,608.5,2313.4,606.5,2312.1,606.5z"/>
	<path id="XMLID_54_" class="st5" d="M1802.1,660.5c-1.3,0-1.3,2,0,2C1803.3,662.5,1803.3,660.5,1802.1,660.5z"/>
	<path id="XMLID_53_" class="st5" d="M1871.1,495.5c-1.3,0-1.3,2,0,2C1872.3,497.5,1872.3,495.5,1871.1,495.5z"/>
	<path id="XMLID_52_" class="st5" d="M487.9,803.5c-2.6,0-2.6,4,0,4C490.5,807.5,490.5,803.5,487.9,803.5z"/>
	<path id="XMLID_51_" class="st5" d="M709.9,995.5c-2.6,0-2.6,4,0,4C712.5,999.5,712.5,995.5,709.9,995.5z"/>
	<path id="XMLID_50_" class="st5" d="M514.9,572.5c-2.6,0-2.6,4,0,4C517.5,576.5,517.5,572.5,514.9,572.5z"/>
	<path id="XMLID_49_" class="st5" d="M836,518.5c-2.6,0-2.6,4,0,4C838.5,522.5,838.5,518.5,836,518.5z"/>
	<path id="XMLID_48_" class="st5" d="M953,860.5c-2.6,0-2.6,4,0,4C955.5,864.5,955.5,860.5,953,860.5z"/>
	<path id="XMLID_47_" class="st5" d="M857,1277.6c-2.6,0-2.6,4,0,4C859.5,1281.6,859.5,1277.6,857,1277.6z"/>
	<path id="XMLID_46_" class="st5" d="M1259,1436.6c-2.6,0-2.6,4,0,4C1261.6,1440.6,1261.6,1436.6,1259,1436.6z"/>
	<path id="XMLID_45_" class="st5" d="M1496,1280.6c-2.6,0-2.6,4,0,4C1498.6,1284.6,1498.6,1280.6,1496,1280.6z"/>
	<path id="XMLID_44_" class="st5" d="M1490,974.5c-2.6,0-2.6,4,0,4C1492.6,978.5,1492.6,974.5,1490,974.5z"/>
	<path id="XMLID_43_" class="st5" d="M1736,1478.6c-2.6,0-2.6,4,0,4C1738.6,1482.6,1738.6,1478.6,1736,1478.6z"/>
	<path id="XMLID_42_" class="st5" d="M2204.1,1469.6h-3c-1,0-2,0.9-2,2c0,1.1,0.9,2,2,2h3c1,0,2-0.9,2-2
		C2206,1470.5,2205.2,1469.6,2204.1,1469.6z"/>
	<path id="XMLID_41_" class="st5" d="M1898.1,1346.6c-2.6,0-2.6,4,0,4C1900.6,1350.6,1900.6,1346.6,1898.1,1346.6z"/>
	<path id="XMLID_40_" class="st5" d="M2108.1,1268.6c-2.6,0-2.6,4,0,4C2110.7,1272.6,2110.7,1268.6,2108.1,1268.6z"/>
	<path id="XMLID_39_" class="st5" d="M1799.1,1034.5c-2.6,0-2.6,4,0,4C1801.6,1038.5,1801.6,1034.5,1799.1,1034.5z"/>
	<path id="XMLID_38_" class="st5" d="M1994.1,749.5c-2.6,0-2.6,4,0,4C1996.6,753.5,1996.7,749.5,1994.1,749.5z"/>
	<path id="XMLID_37_" class="st5" d="M2225.1,635.5c-2.6,0-2.6,4,0,4C2227.7,639.5,2227.7,635.5,2225.1,635.5z"/>
	<path id="XMLID_36_" class="st5" d="M2144.1,458.5c-2.6,0-2.6,4,0,4C2146.7,462.5,2146.7,458.5,2144.1,458.5z"/>
	<path id="XMLID_35_" class="st5" d="M2282.1,437.5c-2.6,0-2.6,4,0,4C2284.7,441.5,2284.7,437.5,2282.1,437.5z"/>
	<path id="XMLID_34_" class="st5" d="M962,647.5c-2.6,0-2.6,4,0,4C964.5,651.5,964.5,647.5,962,647.5z"/>
	<path id="XMLID_33_" class="st5" d="M631.9,1253.6h-6c-2.6,0-2.6,4,0,4h6C634.5,1257.6,634.5,1253.6,631.9,1253.6z"/>
	<path id="XMLID_32_" class="st5" d="M274.9,572.5c-2.6,0-2.6,4,0,4C277.5,576.5,277.5,572.5,274.9,572.5z"/>
	<path id="XMLID_31_" class="st5" d="M445.9,329.5c-2.6,0-2.6,4,0,4C448.5,333.5,448.5,329.5,445.9,329.5z"/>
	<path id="XMLID_30_" class="st5" d="M643.9,260.5c-2.6,0-2.6,4,0,4C646.5,264.5,646.5,260.5,643.9,260.5z"/>
	<path id="XMLID_29_" class="st5" d="M1211,920.5c-2.6,0-2.6,4,0,4C1213.6,924.5,1213.6,920.5,1211,920.5z"/>
</g>
</svg>
