<?xml version="1.0" encoding="utf-8"?>
<!-- Generator: Adobe Illustrator 19.0.0, SVG Export Plug-In . SVG Version: 6.00 Build 0)  -->
<svg version="1.1" id="Livello_1" xmlns="http://www.w3.org/2000/svg" xmlns:xlink="http://www.w3.org/1999/xlink" x="0px" y="0px"
	 viewBox="0 0 2423.3 1535.8" style="enable-background:new 0 0 2423.3 1535.8;" xml:space="preserve">
<style type="text/css">
	.st0{fill:#00003F;}
	.st1{fill:#07002B;}
	.st2{fill:url(#SVGID_1_);}
	.st3{fill:url(#SVGID_2_);}
	.st4{opacity:0.7;}
	.st5{fill:#FFFFFF;}
</style>
<rect class="st0" width="2423.3" height="1535.8"/>
<path class="st1" d="M2442.8,1537.1c0.3-0.9,0.5-1.4,0.5-1.4v-137.2l0.7-72.5c0,0,0,0,0,0V122.4c-1-5.7-107.1,19.2-172.8,51.1
	c-107.5,52.3-209.1,159.4-332.5,156c-101.2-2.8-194.9-64.2-296.1-61.7c-342.7,8.5-523.3,528.8-409.2,802.5
	c70.6,169.3,236.1,164.1,393.8,168.7c151,4.4,310.5,3.4,447.6,76c105.8,56.1,156.2,172.2,265.5,220.6c3.6,0.3,7.1,0.6,10.7,0.9
	C2381.6,1536.9,2412.2,1536.6,2442.8,1537.1z"/>
<g>
	<linearGradient id="SVGID_1_" gradientUnits="userSpaceOnUse" x1="2423.2798" y1="114.0471" x2="2423.3135" y2="114.0471">
		<stop  offset="0" style="stop-color:#0A0049"/>
		<stop  offset="0.5022" style="stop-color:#07004D"/>
		<stop  offset="1" style="stop-color:#000059"/>
	</linearGradient>
	<path class="st2" d="M2423.3,114L2423.3,114C2423.3,114,2423.3,114,2423.3,114C2423.3,114,2423.3,114,2423.3,114z"/>
	<linearGradient id="SVGID_2_" gradientUnits="userSpaceOnUse" x1="1189.6005" y1="833.3622" x2="2422.6404" y2="833.3622">
		<stop  offset="0" style="stop-color:#0A0037"/>
		<stop  offset="0.3356" style="stop-color:#09003B"/>
		<stop  offset="0.6998" style="stop-color:#050048"/>
		<stop  offset="1" style="stop-color:#000059"/>
	</linearGradient>
	<path class="st3" d="M2389,1528.7c-11.9,0-24.1-0.1-36.1-0.2l-0.9-0.1c-2.5-0.2-5-0.4-7.5-0.6c-54.2-24.5-93.1-66-134.2-109.9
		c-37.7-40.3-76.8-82-128.9-109.6c-129.7-68.7-277.5-72.6-420.5-76.4c-10.7-0.3-21.3-0.6-31.9-0.9c-8.4-0.2-16.9-0.5-25.4-0.7
		c-151.5-3.9-294.5-7.6-358.6-161.3c-66.1-158.4-30.1-410.3,83.8-585.7c82.4-127,194.4-198.5,315.5-201.5
		c50.8-1.3,99.3,14.1,150.5,30.3c46.7,14.8,95,30.1,145,31.4c2,0.1,4,0.1,6,0.1c85,0,159.1-49,230.8-96.4
		c34.5-22.8,67.2-44.4,100.9-60.8c45.7-22.2,111.8-40.9,145.3-47.9c0,0,0,0,0,0v-22.4c-0.3,0.1-0.6,0.1-0.9,0.2
		c-12.4,2.4-28.3,6.3-44.8,10.9c-41.4,11.5-81.2,25.9-109.2,39.5c-35,17-69.7,40-103.4,62.2c-70.5,46.6-143.5,94.9-224,92.7
		c-47-1.3-93.7-16.1-139-30.4c-50.7-16-103.1-32.6-157.7-31.3c-67.5,1.7-131.6,22.5-190.6,62.1c-53.7,36-101.8,86.3-142.8,149.5
		c-57,87.8-97.1,197-113,307.5c-16.1,111.6-6.4,217.7,27.4,298.7c31.3,75,83.6,123.7,159.8,148.9c66.6,22,143.8,24,218.5,25.9
		c8.4,0.2,16.9,0.4,25.3,0.7c10.6,0.3,21.3,0.6,32,0.9c140.4,3.7,285.6,7.6,410.8,73.9c48.9,25.9,86.6,66.2,123.1,105.2
		c41.2,44,83.8,89.5,143,115.7l1.7,0.7l1.8,0.2c3.1,0.3,6.3,0.5,9.4,0.8l1.3,0.1l0.8,0c12.2,0.1,24.7,0.1,36.7,0.2
		c12.8,0,20.7-0.1,33.7,0v-21.9C2409.9,1528.7,2401.4,1528.7,2389,1528.7z"/>
</g>
<g class="st4">
	<path class="st5" d="M1346.2,537.9h-3c-1.3,0-1.3,2,0,2h3C1347.5,539.9,1347.5,537.9,1346.2,537.9z"/>
	<path class="st5" d="M1484.2,411.9c-1.3,0-1.3,2,0,2C1485.5,413.9,1485.5,411.9,1484.2,411.9z"/>
	<path class="st5" d="M1700.2,348.9c-1.3,0-1.3,2,0,2C1701.5,350.9,1701.5,348.9,1700.2,348.9z"/>
	<path class="st5" d="M1853.2,408.9c-1.3,0-1.3,2,0,2C1854.5,410.9,1854.5,408.9,1853.2,408.9z"/>
	<path class="st5" d="M1691.2,504.9c-1.3,0-1.3,2,0,2C1692.5,506.9,1692.5,504.9,1691.2,504.9z"/>
	<path class="st5" d="M1616.2,417.9c-1.3,0-1.3,2,0,2C1617.5,419.9,1617.5,417.9,1616.2,417.9z"/>
	<path class="st5" d="M1517.2,537.9c-1.3,0-1.3,2,0,2C1518.5,539.9,1518.5,537.9,1517.2,537.9z"/>
	<path class="st5" d="M1403.2,697c-1.3,0-1.3,2,0,2C1404.5,699,1404.5,697,1403.2,697z"/>
	<path class="st5" d="M1460.2,835c-1.3,0-1.3,2,0,2C1461.5,837,1461.5,835,1460.2,835z"/>
	<path class="st5" d="M1679.2,775c-1.3,0-1.3,2,0,2C1680.5,777,1680.5,775,1679.2,775z"/>
	<path class="st5" d="M1829.2,793c-1.3,0-1.3,2,0,2C1830.5,795,1830.5,793,1829.2,793z"/>
	<path class="st5" d="M1835.2,907c-1.3,0-1.3,2,0,2C1836.5,909,1836.5,907,1835.2,907z"/>
	<path class="st5" d="M1751.2,967c-1.3,0-1.3,2,0,2C1752.5,969,1752.5,967,1751.2,967z"/>
	<path class="st5" d="M1700.2,1057c-1.3,0-1.3,2,0,2C1701.5,1059,1701.5,1057,1700.2,1057z"/>
	<path class="st5" d="M1541.2,1036c-1.3,0-1.3,2,0,2C1542.5,1038,1542.5,1036,1541.2,1036z"/>
	<path class="st5" d="M1478.2,985c-1.3,0-1.3,2,0,2C1479.5,987,1479.5,985,1478.2,985z"/>
	<path class="st5" d="M1496.2,919c-1.3,0-1.3,2,0,2C1497.5,921,1497.5,919,1496.2,919z"/>
	<path class="st5" d="M1655.2,1156c-1.3,0-1.3,2,0,2C1656.5,1158,1656.5,1156,1655.2,1156z"/>
	<path class="st5" d="M1823.2,1237c-1.3,0-1.3,2,0,2C1824.5,1239,1824.5,1237,1823.2,1237z"/>
	<path class="st5" d="M2201.3,1270c-1.3,0-1.3,2,0,2C2202.6,1272,2202.6,1270,2201.3,1270z"/>
	<path class="st5" d="M2408.3,1150c-1.3,0-1.3,2,0,2C2409.6,1152,2409.6,1150,2408.3,1150z"/>
	<path class="st5" d="M2258.3,1114c-1.3,0-1.3,2,0,2C2259.6,1116,2259.6,1114,2258.3,1114z"/>
	<path class="st5" d="M2195.3,1015c-1.3,0-1.3,2,0,2C2196.6,1017,2196.6,1015,2195.3,1015z"/>
	<path class="st5" d="M2282.3,949c-1.3,0-1.3,2,0,2C2283.6,951,2283.6,949,2282.3,949z"/>
	<path class="st5" d="M2321.3,814c-1.3,0-1.3,2,0,2C2322.6,816,2322.6,814,2321.3,814z"/>
	<path class="st5" d="M2234.3,603.9c-1.3,0-1.3,2,0,2C2235.6,605.9,2235.6,603.9,2234.3,603.9z"/>
	<path class="st5" d="M2003.2,736c-1.3,0-1.3,2,0,2C2004.5,738,2004.5,736,2003.2,736z"/>
	<path class="st5" d="M1928.2,667c-1.3,0-1.3,2,0,2C1929.5,669,1929.5,667,1928.2,667z"/>
	<path class="st5" d="M2042.3,549.9c-1.3,0-1.3,2,0,2C2043.5,551.9,2043.5,549.9,2042.3,549.9z"/>
	<path class="st5" d="M2021.3,459.9c-1.3,0-1.3,2,0,2C2022.5,461.9,2022.5,459.9,2021.3,459.9z"/>
	<path class="st5" d="M1865.2,537.9c-1.3,0-1.3,2,0,2C1866.5,539.9,1866.5,537.9,1865.2,537.9z"/>
	<path class="st5" d="M1943.2,850c-1.3,0-1.3,2,0,2C1944.5,852,1944.5,850,1943.2,850z"/>
	<path class="st5" d="M2114.3,1057c-1.3,0-1.3,2,0,2C2115.5,1059,2115.5,1057,2114.3,1057z"/>
	<path class="st5" d="M2069.3,1177c-1.3,0-1.3,2,0,2C2070.5,1179,2070.5,1177,2069.3,1177z"/>
	<path class="st5" d="M1907.2,1204c-1.3,0-1.3,2,0,2C1908.5,1206,1908.5,1204,1907.2,1204z"/>
	<path class="st5" d="M1760.2,1120c-1.3,0-1.3,2,0,2C1761.5,1122,1761.5,1120,1760.2,1120z"/>
	<path class="st5" d="M1928.2,1066c-1.3,0-1.3,2,0,2C1929.5,1068,1929.5,1066,1928.2,1066z"/>
	<path class="st5" d="M1829.2,1042c-1.3,0-1.3,2,0,2C1830.5,1044,1830.5,1042,1829.2,1042z"/>
	<path class="st5" d="M1685.2,1126c-1.3,0-1.3,2,0,2C1686.5,1128,1686.5,1126,1685.2,1126z"/>
	<path class="st5" d="M1448.2,978c-2.6,0-2.6,4,0,4C1450.8,982,1450.8,978,1448.2,978z"/>
	<path class="st5" d="M1358.2,822c-2.6,0-2.6,4,0,4C1360.8,826,1360.8,822,1358.2,822z"/>
	<path class="st5" d="M1457.2,639c-2.6,0-2.6,4,0,4C1459.8,643,1459.8,639,1457.2,639z"/>
	<path class="st5" d="M1430.2,452.9h-3c-1,0-2,0.9-2,2c0,1.1,0.9,2,2,2h3c1,0,2-0.9,2-2C1432.1,453.8,1431.3,452.9,1430.2,452.9z"/>
	<path class="st5" d="M1613.2,338.9c-2.6,0-2.6,4,0,4C1615.8,342.9,1615.8,338.9,1613.2,338.9z"/>
	<path class="st5" d="M1784.2,789c-2.6,0-2.6,4,0,4C1786.8,793,1786.8,789,1784.2,789z"/>
	<path class="st5" d="M1688.2,578.9c-2.6,0-2.6,4,0,4C1690.8,582.9,1690.8,578.9,1688.2,578.9z"/>
	<path class="st5" d="M1937.2,449.9c-2.6,0-2.6,4,0,4C1939.8,453.9,1939.8,449.9,1937.2,449.9z"/>
	<path class="st5" d="M2270.3,873c-2.6,0-2.6,4,0,4C2272.8,877,2272.9,873,2270.3,873z"/>
	<path class="st5" d="M2042.3,1014c-2.6,0-2.6,4,0,4C2044.8,1018,2044.8,1014,2042.3,1014z"/>
	<path class="st5" d="M1799.2,1017c-2.6,0-2.6,4,0,4C1801.8,1021,1801.8,1017,1799.2,1017z"/>
	<path class="st5" d="M1817.2,1140c-2.6,0-2.6,4,0,4C1819.8,1144,1819.8,1140,1817.2,1140z"/>
	<path class="st5" d="M1934.2,1203c-2.6,0-2.6,4,0,4C1936.8,1207,1936.8,1203,1934.2,1203z"/>
	<path class="st5" d="M1955.2,1140c-2.6,0-2.6,4,0,4C1957.8,1144,1957.8,1140,1955.2,1140z"/>
	<path class="st5" d="M1718.2,1179c-2.6,0-2.6,4,0,4C1720.8,1183,1720.8,1179,1718.2,1179z"/>
	<path class="st5" d="M1538.2,1152c-2.6,0-2.6,4,0,4C1540.8,1156,1540.8,1152,1538.2,1152z"/>
	<path class="st5" d="M1745.2,1071c-2.6,0-2.6,4,0,4C1747.8,1075,1747.8,1071,1745.2,1071z"/>
	<path class="st5" d="M2198.3,1164c-2.6,0-2.6,4,0,4C2200.8,1168,2200.8,1164,2198.3,1164z"/>
	<path class="st5" d="M2105.3,1290c-2.6,0-2.6,4,0,4C2107.8,1294,2107.8,1290,2105.3,1290z"/>
	<path class="st5" d="M2342.3,1362c-2.6,0-2.6,4,0,4C2344.9,1366,2344.9,1362,2342.3,1362z"/>
	<path class="st5" d="M2396.3,1305c-2.6,0-2.6,4,0,4C2398.9,1309,2398.9,1305,2396.3,1305z"/>
	<path class="st5" d="M2342.3,1068c-2.6,0-2.6,4,0,4C2344.9,1072,2344.9,1068,2342.3,1068z"/>
</g>
<path class="st5" d="M1437.3,1042c-3.9,0-3.9,6,0,6C1441.2,1048,1441.2,1042,1437.3,1042z"/>
<path class="st5" d="M1398.3,608c-3.9,0-3.9,6,0,6C1402.2,614,1402.2,608,1398.3,608z"/>
<path class="st5" d="M1655.4,512c-1.6,0.1-3,1.3-3,3v1.5c0,1.6,1.4,3.1,3,3c1.6-0.1,3-1.3,3-3V515
	C1658.4,513.4,1657,511.9,1655.4,512z"/>
<path class="st5" d="M2088.9,480.5c-3.9,0-3.9,6,0,6C2092.8,486.5,2092.8,480.5,2088.9,480.5z"/>
<path class="st5" d="M1968.9,1086.5c-3.9,0-3.9,6,0,6C1972.8,1092.5,1972.8,1086.5,1968.9,1086.5z"/>
<path class="st5" d="M2183.4,1301c-3.9,0-3.9,6,0,6C2187.3,1307,2187.3,1301,2183.4,1301z"/>
<path class="st5" d="M2303.4,1158.5c-3.9,0-3.9,6,0,6C2307.2,1164.5,2307.3,1158.5,2303.4,1158.5z"/>
<path class="st5" d="M1776.9,1197.5c-3.9,0-3.9,6,0,6C1780.8,1203.5,1780.8,1197.5,1776.9,1197.5z"/>
<path class="st5" d="M2361.9,599c-3.9,0-3.9,6,0,6C2365.7,605,2365.8,599,2361.9,599z"/>
</svg>
